<mxfile host="app.diagrams.net" modified="2023-12-23T06:59:50.806Z" agent="Mozilla/5.0 (Windows NT 10.0; Win64; x64) AppleWebKit/537.36 (KHTML, like Gecko) Chrome/120.0.0.0 Safari/537.36" etag="NZPdso9Xa11zO8F-hwDj" version="22.1.11" type="github">
  <diagram name="Page-1" id="2bnEpL4pz7nwndURoEGw">
    <mxGraphModel dx="522" dy="587" grid="0" gridSize="10" guides="1" tooltips="1" connect="1" arrows="1" fold="1" page="0" pageScale="1" pageWidth="850" pageHeight="1100" math="0" shadow="0">
      <root>
        <mxCell id="0" />
        <mxCell id="1" parent="0" />
        <mxCell id="BXSGwisui3tPZK8ptayI-1" value="" style="whiteSpace=wrap;html=1;aspect=fixed;fontSize=16;" vertex="1" parent="1">
          <mxGeometry x="262" y="43" width="125" height="125" as="geometry" />
        </mxCell>
        <mxCell id="BXSGwisui3tPZK8ptayI-3" value="" style="whiteSpace=wrap;html=1;aspect=fixed;fontSize=16;" vertex="1" parent="1">
          <mxGeometry x="134" y="166" width="128" height="128" as="geometry" />
        </mxCell>
        <mxCell id="BXSGwisui3tPZK8ptayI-4" value="" style="whiteSpace=wrap;html=1;aspect=fixed;fontSize=16;" vertex="1" parent="1">
          <mxGeometry x="9" y="39" width="125" height="125" as="geometry" />
        </mxCell>
        <mxCell id="BXSGwisui3tPZK8ptayI-5" value="" style="rounded=0;whiteSpace=wrap;html=1;fontSize=16;" vertex="1" parent="1">
          <mxGeometry x="12.5" y="39" width="118" height="29" as="geometry" />
        </mxCell>
        <mxCell id="BXSGwisui3tPZK8ptayI-6" value="" style="rounded=0;whiteSpace=wrap;html=1;fontSize=16;" vertex="1" parent="1">
          <mxGeometry x="139" y="168" width="118" height="29" as="geometry" />
        </mxCell>
        <mxCell id="BXSGwisui3tPZK8ptayI-7" value="" style="rounded=0;whiteSpace=wrap;html=1;fontSize=16;" vertex="1" parent="1">
          <mxGeometry x="265.5" y="43" width="118" height="29" as="geometry" />
        </mxCell>
        <mxCell id="BXSGwisui3tPZK8ptayI-8" value="" style="rounded=0;whiteSpace=wrap;html=1;fontSize=16;" vertex="1" parent="1">
          <mxGeometry x="139" y="272" width="118" height="22" as="geometry" />
        </mxCell>
        <mxCell id="BXSGwisui3tPZK8ptayI-9" value="" style="rounded=0;whiteSpace=wrap;html=1;fontSize=16;" vertex="1" parent="1">
          <mxGeometry x="265.5" y="145" width="118" height="19" as="geometry" />
        </mxCell>
        <mxCell id="BXSGwisui3tPZK8ptayI-10" value="" style="rounded=0;whiteSpace=wrap;html=1;fontSize=16;" vertex="1" parent="1">
          <mxGeometry x="12.5" y="151" width="118" height="15" as="geometry" />
        </mxCell>
        <mxCell id="BXSGwisui3tPZK8ptayI-12" value="" style="rounded=0;whiteSpace=wrap;html=1;fontSize=16;rotation=-90;" vertex="1" parent="1">
          <mxGeometry x="-14.25" y="94.75" width="67" height="16.5" as="geometry" />
        </mxCell>
        <mxCell id="BXSGwisui3tPZK8ptayI-13" value="" style="rounded=0;whiteSpace=wrap;html=1;fontSize=16;rotation=-90;" vertex="1" parent="1">
          <mxGeometry x="236.25" y="99.25" width="68" height="14.5" as="geometry" />
        </mxCell>
        <mxCell id="BXSGwisui3tPZK8ptayI-14" value="" style="rounded=0;whiteSpace=wrap;html=1;fontSize=16;rotation=-90;" vertex="1" parent="1">
          <mxGeometry x="216" y="224" width="65" height="17" as="geometry" />
        </mxCell>
        <mxCell id="BXSGwisui3tPZK8ptayI-16" value="" style="rounded=0;whiteSpace=wrap;html=1;fontSize=16;" vertex="1" parent="1">
          <mxGeometry x="32.5" y="68" width="98" height="9" as="geometry" />
        </mxCell>
        <mxCell id="BXSGwisui3tPZK8ptayI-18" value="" style="rounded=0;whiteSpace=wrap;html=1;fontSize=16;" vertex="1" parent="1">
          <mxGeometry x="142" y="202" width="94.25" height="58" as="geometry" />
        </mxCell>
        <mxCell id="BXSGwisui3tPZK8ptayI-19" value="" style="whiteSpace=wrap;html=1;aspect=fixed;fontSize=16;" vertex="1" parent="1">
          <mxGeometry x="32.5" y="111.25" width="22" height="22" as="geometry" />
        </mxCell>
        <mxCell id="BXSGwisui3tPZK8ptayI-20" value="" style="whiteSpace=wrap;html=1;aspect=fixed;fontSize=16;" vertex="1" parent="1">
          <mxGeometry x="60.5" y="111.25" width="22" height="22" as="geometry" />
        </mxCell>
        <mxCell id="BXSGwisui3tPZK8ptayI-21" value="" style="whiteSpace=wrap;html=1;aspect=fixed;fontSize=16;" vertex="1" parent="1">
          <mxGeometry x="92" y="111.25" width="22" height="22" as="geometry" />
        </mxCell>
        <mxCell id="BXSGwisui3tPZK8ptayI-22" value="" style="whiteSpace=wrap;html=1;aspect=fixed;fontSize=16;" vertex="1" parent="1">
          <mxGeometry x="92" y="85" width="22" height="22" as="geometry" />
        </mxCell>
        <mxCell id="BXSGwisui3tPZK8ptayI-23" value="" style="whiteSpace=wrap;html=1;aspect=fixed;fontSize=16;" vertex="1" parent="1">
          <mxGeometry x="32.5" y="85" width="22" height="22" as="geometry" />
        </mxCell>
        <mxCell id="BXSGwisui3tPZK8ptayI-24" value="" style="whiteSpace=wrap;html=1;aspect=fixed;fontSize=16;" vertex="1" parent="1">
          <mxGeometry x="60.5" y="85" width="22" height="22" as="geometry" />
        </mxCell>
        <mxCell id="BXSGwisui3tPZK8ptayI-28" value="" style="endArrow=none;html=1;rounded=0;fontSize=12;startSize=8;endSize=8;curved=1;" edge="1" parent="1">
          <mxGeometry width="50" height="50" relative="1" as="geometry">
            <mxPoint x="32.5" y="142" as="sourcePoint" />
            <mxPoint x="123.5" y="142" as="targetPoint" />
          </mxGeometry>
        </mxCell>
        <mxCell id="BXSGwisui3tPZK8ptayI-29" value="" style="whiteSpace=wrap;html=1;aspect=fixed;fontSize=16;" vertex="1" parent="1">
          <mxGeometry x="284" y="77" width="30" height="30" as="geometry" />
        </mxCell>
        <mxCell id="BXSGwisui3tPZK8ptayI-30" value="" style="rounded=0;whiteSpace=wrap;html=1;fontSize=16;" vertex="1" parent="1">
          <mxGeometry x="326" y="77" width="57.5" height="30" as="geometry" />
        </mxCell>
        <mxCell id="BXSGwisui3tPZK8ptayI-31" value="" style="rounded=0;whiteSpace=wrap;html=1;fontSize=16;" vertex="1" parent="1">
          <mxGeometry x="284" y="113.75" width="98" height="27.25" as="geometry" />
        </mxCell>
        <mxCell id="BXSGwisui3tPZK8ptayI-32" value="" style="endArrow=classic;html=1;rounded=0;fontSize=12;startSize=8;endSize=8;curved=1;entryX=0.425;entryY=0.021;entryDx=0;entryDy=0;entryPerimeter=0;" edge="1" parent="1" target="BXSGwisui3tPZK8ptayI-6">
          <mxGeometry width="50" height="50" relative="1" as="geometry">
            <mxPoint x="114" y="135" as="sourcePoint" />
            <mxPoint x="164" y="85" as="targetPoint" />
          </mxGeometry>
        </mxCell>
        <mxCell id="BXSGwisui3tPZK8ptayI-33" value="" style="endArrow=classic;html=1;rounded=0;fontSize=12;startSize=8;endSize=8;curved=1;" edge="1" parent="1">
          <mxGeometry width="50" height="50" relative="1" as="geometry">
            <mxPoint x="128" y="48" as="sourcePoint" />
            <mxPoint x="261" y="50" as="targetPoint" />
          </mxGeometry>
        </mxCell>
        <mxCell id="BXSGwisui3tPZK8ptayI-35" value="" style="endArrow=classic;html=1;rounded=0;fontSize=12;startSize=8;endSize=8;curved=1;" edge="1" parent="1">
          <mxGeometry width="50" height="50" relative="1" as="geometry">
            <mxPoint x="299" y="126" as="sourcePoint" />
            <mxPoint x="262" y="166" as="targetPoint" />
          </mxGeometry>
        </mxCell>
      </root>
    </mxGraphModel>
  </diagram>
</mxfile>
